<svg width="128" height="128" viewBox="0 0 128 128" xmlns="http://www.w3.org/2000/svg">
  <!-- Shadow -->
  <rect x="44" y="38" width="40" height="72" rx="8" fill="#000000" opacity="0.15" transform="translate(2, 2)"/>
  <!-- Body -->
  <rect x="44" y="38" width="40" height="72" rx="8" fill="#EF4444"/>
  <!-- Body shading -->
  <rect x="44" y="60" width="40" height="50" rx="8" fill="#DC2626"/>
  <!-- Pressure gauge circle -->
  <circle cx="64" cy="54" r="10" fill="#1F2937"/>
  <circle cx="64" cy="54" r="7" fill="#F5F5F5"/>
  <!-- Gauge needle -->
  <line x1="64" y1="54" x2="68" y2="50" stroke="#EF4444" stroke-width="2" stroke-linecap="round"/>
  <!-- Handle/lever top -->
  <rect x="58" y="20" width="12" height="20" rx="3" fill="#1F2937"/>
  <!-- Hose connector -->
  <rect x="74" y="64" width="12" height="6" rx="2" fill="#374151"/>
  <!-- Hose -->
  <path d="M 86 67 Q 98 70, 102 80" stroke="#1F2937" stroke-width="6" fill="none" stroke-linecap="round"/>
  <!-- Nozzle -->
  <circle cx="102" cy="82" r="5" fill="#4B5563"/>
  <rect x="102" y="80" width="12" height="4" rx="1" fill="#6B7280"/>
  <!-- Safety pin -->
  <rect x="58" y="36" width="12" height="4" rx="1" fill="#FCD34D"/>
  <!-- Label band -->
  <rect x="46" y="82" width="36" height="12" fill="#FFFFFF"/>
  <!-- Base ring -->
  <ellipse cx="64" cy="110" rx="18" ry="4" fill="#B91C1C"/>
  <!-- Highlight -->
  <rect x="48" y="44" width="8" height="20" rx="2" fill="#FFFFFF" opacity="0.2"/>
</svg>
