<svg width="128" height="128" viewBox="0 0 128 128" xmlns="http://www.w3.org/2000/svg">
  <!-- Shadow -->
  <rect x="16" y="52" width="96" height="32" rx="3" fill="#000000" opacity="0.15" transform="translate(2, 2)"/>
  <!-- Keyboard body -->
  <rect x="16" y="52" width="96" height="32" rx="3" fill="#1F2937"/>
  <!-- White keys -->
  <rect x="20" y="56" width="10" height="24" fill="#FFFFFF" rx="1"/>
  <rect x="32" y="56" width="10" height="24" fill="#FFFFFF" rx="1"/>
  <rect x="44" y="56" width="10" height="24" fill="#FFFFFF" rx="1"/>
  <rect x="56" y="56" width="10" height="24" fill="#FFFFFF" rx="1"/>
  <rect x="68" y="56" width="10" height="24" fill="#FFFFFF" rx="1"/>
  <rect x="80" y="56" width="10" height="24" fill="#FFFFFF" rx="1"/>
  <rect x="92" y="56" width="10" height="24" fill="#FFFFFF" rx="1"/>
  <rect x="104" y="56" width="6" height="24" fill="#FFFFFF" rx="1"/>
  <!-- Black keys -->
  <rect x="27" y="56" width="7" height="14" fill="#000000" rx="1"/>
  <rect x="39" y="56" width="7" height="14" fill="#000000" rx="1"/>
  <rect x="63" y="56" width="7" height="14" fill="#000000" rx="1"/>
  <rect x="75" y="56" width="7" height="14" fill="#000000" rx="1"/>
  <rect x="87" y="56" width="7" height="14" fill="#000000" rx="1"/>
  <!-- Legs -->
  <rect x="24" y="84" width="3" height="12" fill="#374151"/>
  <rect x="101" y="84" width="3" height="12" fill="#374151"/>
</svg>
