<svg width="128" height="128" viewBox="0 0 128 128" xmlns="http://www.w3.org/2000/svg">
  <!-- Shadow -->
  <ellipse cx="64" cy="108" rx="48" ry="8" fill="#000000" opacity="0.2"/>
  <!-- Back pillows -->
  <rect x="20" y="70" width="32" height="32" rx="6" fill="#A855F7" transform="rotate(-8 36 86)"/>
  <rect x="76" y="70" width="32" height="32" rx="6" fill="#EC4899" transform="rotate(8 92 86)"/>
  <!-- Middle pillows -->
  <rect x="32" y="56" width="28" height="28" rx="5" fill="#22D3EE" transform="rotate(-5 46 70)"/>
  <rect x="68" y="56" width="28" height="28" rx="5" fill="#FCD34D" transform="rotate(5 82 70)"/>
  <!-- Front center pillow -->
  <rect x="48" y="72" width="32" height="32" rx="6" fill="#10B981"/>
  <!-- Top pillow -->
  <rect x="52" y="44" width="24" height="24" rx="4" fill="#F87171" transform="rotate(-3 64 56)"/>
  <!-- Pillow details (stitch lines) -->
  <rect x="52" y="80" width="24" height="2" rx="1" fill="#059669" opacity="0.3"/>
  <rect x="52" y="88" width="24" height="2" rx="1" fill="#059669" opacity="0.3"/>
  <rect x="56" y="52" width="16" height="2" rx="1" fill="#DC2626" opacity="0.3"/>
  <rect x="38" y="64" width="16" height="2" rx="1" fill="#0891B2" opacity="0.3"/>
  <!-- Fort entrance (dark opening) -->
  <ellipse cx="64" cy="96" rx="16" ry="12" fill="#1F2937"/>
</svg>
